<svg fill="none" xmlns="http://www.w3.org/2000/svg" viewBox="0 0 14 16">
  <path fill-rule="evenodd" clip-rule="evenodd" d="M13.587 6.988a523.403 523.403 0 00-4.322-5.492c-.23-.289-.566-.635-.958-.438-.265.132-.506.525-.533.82-.089.969-.082 1.945-.092 2.918-.001.11.11.23.19.331.604.771 1.218 1.535 1.818 2.308.167.215.26.39.29.557-.03.234-.123.352-.29.567-.6.773-1.214 1.54-1.818 2.311-.08.102-.191.226-.19.336.01.973.003 1.949.092 2.917.027.295.268.688.533.82.392.196.728-.152.958-.441a521.565 521.565 0 004.322-5.496c.254-.327.388-.546.413-1.014-.025-.34-.16-.677-.413-1.004z" fill="#1F2C5C"/>
  <path fill-rule="evenodd" clip-rule="evenodd" d="M.413 6.988c1.426-1.84 2.87-3.669 4.322-5.492.23-.289.566-.635.958-.438.265.132.506.525.533.82.089.969.082 1.945.092 2.918.001.11-.11.23-.19.331-.604.771-1.218 1.535-1.818 2.308-.167.215-.261.39-.29.557.029.234.123.352.29.567.6.773 1.214 1.54 1.818 2.311.08.102.191.226.19.336-.01.973-.003 1.949-.092 2.917-.027.295-.268.688-.533.82-.392.196-.728-.152-.958-.441A523.131 523.131 0 01.413 9.006C.159 8.679.025 8.46 0 7.992c.025-.34.16-.677.413-1.004z" fill="#1A8ACB"/>
</svg>
